# xmcd
#
# Track frame offsets:
#	150
#	8580
#	19242
#	30817
#	43052
#	53307
#	63127
#	76535
#	87512
#	96805
#	108972
#	120590
#	134730
#	148177
#	160167
#	173280
#	184272
#	196352
#	207602
#	217715
#	228282
#	239107
#
# Disc length: 3345
#
# Revision: 1
# Processed by: cddbd v1.5.1PL0 Copyright (c) Steve Scherf et al.
# Submitted via: ExactAudioCopy v0.90b3
# Normalized: r0:DSETVAR1,TDELIM( - )
#
DISCID=190d0f16
DTITLE=Various Artist - Philadelphia's Doo-Wop Sound vol 1, Swan Masters
DYEAR=1900
DGENRE=
TTITLE0=the encounters - don't stop
TTITLE1=the royal lancers - you're the right one
TTITLE2=frankie grier quartet - oh gloria
TTITLE3=johnny holiday and the graduates - ballad of a girl and boy
TTITLE4=little guy and the giants - it's you
TTITLE5=little guy and the giants - so young
TTITLE6=barri petri - pretty little angel
TTITLE7=the cobras - la la
TTITLE8=the dreamlovers - amazon and coyotees
TTITLE9=the dial tones - love is forever
TTITLE10=lee andrews - p.s. i love you
TTITLE11=lee andrews - a night like tonight
TTITLE12=the vespers - mr cupid
TTITLE13=little jimmy rivers and the tops - puppy love
TTITLE14=the denotations - lone stranger
TTITLE15=danny and the juniors - a thousand miles away
TTITLE16=the modern redcaps - golden teardrops
TTITLE17=the nu-trends - together
TTITLE18=the madisons - can you imagine it
TTITLE19=the styles - i do love you
TTITLE20=the royal teens - i'll love you
TTITLE21=ginger and the snaps - i'm no runaround
EXTD=
EXTT0=
EXTT1=
EXTT2=
EXTT3=
EXTT4=
EXTT5=
EXTT6=
EXTT7=
EXTT8=
EXTT9=
EXTT10=
EXTT11=
EXTT12=
EXTT13=
EXTT14=
EXTT15=
EXTT16=
EXTT17=
EXTT18=
EXTT19=
EXTT20=
EXTT21=
PLAYORDER=
